<?xml version="1.0" standalone="no"?>
<!DOCTYPE svg PUBLIC "-//W3C//DTD SVG 20010904//EN"
 "http://www.w3.org/TR/2001/REC-SVG-20010904/DTD/svg10.dtd">
<svg version="1.0" xmlns="http://www.w3.org/2000/svg"
 width="512.000000pt" height="512.000000pt" viewBox="0 0 512.000000 512.000000"
 preserveAspectRatio="xMidYMid meet">
<metadata>
Created by potrace 1.14, written by Peter Selinger 2001-2017
</metadata>
<g transform="translate(0.000000,512.000000) scale(0.100000,-0.100000)"
fill="#000000" stroke="none">
<path d="M2915 3363 c-185 -26 -353 -148 -433 -313 -73 -150 -67 -347 15 -502
58 -112 181 -215 313 -264 19 -7 28 -13 19 -13 -9 -1 -54 18 -100 41 -60 29
-102 60 -147 105 -34 35 -73 67 -85 72 -12 5 -62 14 -111 21 -99 14 -222 8
-325 -16 -35 -8 -66 -13 -67 -11 -6 5 191 63 256 76 30 6 91 12 135 14 44 2
79 8 78 13 -1 5 -10 29 -20 54 -25 64 -25 288 0 344 9 21 17 40 17 42 0 9
-174 -61 -265 -105 -308 -151 -584 -406 -794 -733 -24 -38 -46 -68 -48 -68 -6
0 72 144 114 208 54 86 218 288 303 373 175 176 368 299 653 416 93 38 123 56
175 104 34 33 82 69 105 81 41 22 42 23 14 26 -39 5 -259 -61 -435 -130 -276
-108 -476 -254 -686 -501 -68 -79 -141 -185 -133 -193 3 -4 25 9 49 27 l43 34
-28 -35 c-127 -159 -217 -347 -248 -520 -13 -71 -21 -260 -12 -260 5 0 23 36
41 79 52 123 158 279 233 341 59 49 168 110 197 110 28 0 9 20 -25 26 l-36 7
34 17 c48 25 171 66 254 86 146 34 342 23 483 -26 29 -11 109 -51 178 -90 166
-95 221 -118 304 -128 122 -15 202 0 325 58 160 76 306 247 345 402 20 78 8
231 -22 305 -24 58 -76 138 -84 130 -2 -2 7 -35 20 -73 13 -38 26 -103 29
-144 l6 -75 -13 82 c-8 45 -22 105 -31 135 -49 152 -185 288 -343 343 -66 23
-187 37 -247 28z m-400 -546 c3 -31 10 -69 15 -83 9 -23 8 -25 -12 -18 -13 3
-24 7 -26 9 -3 3 -6 90 -4 135 3 52 21 24 27 -43z m1016 -137 c-18 -86 -69
-178 -139 -252 -62 -65 -153 -127 -212 -143 -14 -3 9 11 50 32 150 76 263 226
292 388 7 38 14 59 16 47 2 -13 -1 -45 -7 -72z m-954 -57 c25 -51 29 -65 17
-70 -8 -3 -20 -3 -27 0 -15 6 -50 75 -60 118 -6 23 -4 26 16 21 15 -3 32 -24
54 -69z m65 -110 c19 -22 61 -103 53 -103 -13 0 -114 103 -109 111 9 15 40 10
56 -8z m205 -163 c68 -35 57 -39 -24 -9 -65 24 -89 41 -96 70 -5 18 -2 18 29
-6 18 -14 60 -39 91 -55z m283 -82 c-14 -6 -72 -12 -130 -13 l-105 -3 108 7
c59 5 110 11 114 15 3 3 13 6 22 5 10 0 6 -5 -9 -11z m-247 -5 c-7 -2 -19 -2
-25 0 -7 3 -2 5 12 5 14 0 19 -2 13 -5z"/>
</g>
</svg>
